<svg transform="scale(1)" version="1.1" id="_x30_691_x5F_Fitness" xmlns="http://www.w3.org/2000/svg" xmlns:xlink="http://www.w3.org/1999/xlink" x="0px" y="0px" width="500px" height="500px" viewBox="0 0 500 500" xml:space="preserve" class="show_show__wrapper__graphic__5Waiy "><title>React</title><style type="text/css">
	.st0{fill:#393e46;}
	.st1{fill:#000001;}
	.st2{fill:#eeeeee;}
	.st3{fill:#393e46;}
	.st4{fill:#FFDC32;}
</style><g id="character"><path class="st0" d="M430.69,144.31c0,0-33.94,0-34.39,0.23c-6.84,1.41-12.86,5.77-17.14,11.29c-4.28,5.52-6.95,12.14-8.71,18.9
		c-0.73,2.81-1.31,5.67-1.37,8.57c0,0,0.17,15.38,0.16,15.53c0.83,8.31,2.43,16.84,7.51,24.35c2.62,4.6,6.43,8.52,11.42,11.33
		c2.11,1.54,4.64,2.43,7.2,2.91c2.57,0.48,5.19,0.57,7.8,0.62c0,0,28.49,0.08,28.64-0.04c4.28-0.16,8.41-1.9,11.83-4.48
		c3.42-2.58,6.17-5.96,8.45-9.58c6.79-10.78,9.56-23.81,8.96-36.91c-0.41-9.78-3.22-19.46-8.25-28.06
		c-3.44-6.28-9.21-11.25-16.15-13.68C435.47,145,434.27,144.73,430.69,144.31z"></path><path class="st1" d="M376.02,183.13c2.32-15.65,11.34-27.32,22.12-27.32c12.54,0,22.7,15.79,22.7,35.27s-10.16,35.27-22.7,35.27
		c-10.96,0-20.11-12.07-22.23-28.12"></path><path class="st0" d="M85.76,126.8h43.27c0,0,4.18,0.7,4.45,0.74c3.46,0.96,6.85,2.24,10.01,3.95c1.57,0.85,3.09,1.8,4.47,2.93
		c1.36,1.12,2.57,2.4,3.74,3.72c3.96,4.49,7.39,9.45,10.36,15.01c8.55,17.81,11.28,38.35,7.4,58.13
		c-1.56,9.45-4.81,18.62-9.57,26.94c-3.47,6.06-7.79,11.74-13.37,15.95c-5.58,4.21-12.49,6.86-19.47,6.52c0,0-41.93,0.18-41.97,0.17
		c-3.13,0.19-6.27-0.32-9.32-1.07c-2.85-0.7-5.67-1.61-8.25-2.99c-3.3-1.76-6.16-4.25-8.77-6.93c-2.93-3.01-5.57-6.29-7.92-10
		c-8.79-15.08-12.93-32.83-11.61-50.5c-0.17-8.23,1.47-16.39,3.65-24.33c0.83-3.03,1.99-5.8,3.32-8.64
		c1.26-2.71,2.64-5.48,4.26-7.99c1.69-2.62,3.39-5.26,5.56-7.75c3.56-4.26,7.87-7.94,12.82-10.45
		C73.76,127.69,79.37,126.38,85.76,126.8z"></path><path class="st1" d="M50.53,176.18c4.6-19.21,16.51-32.89,30.47-32.89c17.95,0,32.5,22.61,32.5,50.5s-14.55,50.5-32.5,50.5
		c-15.28,0-28.1-16.39-31.57-38.48"></path><path class="st2" d="M79.72,176.48c-2.04-0.17-4.09-0.15-6.12,0.05c0,0-23.25,0.06-23.18,0.16c-1.08-0.04-2.04,0.63-2.87,1.32
		c-1.09,0.91-2.13,1.91-2.86,3.12c-0.73,1.19-1.14,2.55-1.42,3.92c-0.88,4.29-0.54,8.78,0.63,12.99c0.44,1.59,1,3.16,1.93,4.53
		c0.92,1.37,2.23,2.52,3.81,3c1.03,0.31,2.11,0.34,3.19,0.36c0,0,27.51,0.12,27.96-0.04c1.67-0.7,3.04-2.02,4.01-3.55
		c0.97-1.53,1.57-3.27,1.98-5.04c1.01-4.33,0.95-8.91-0.18-13.21c-0.44-1.68-1.06-3.34-2.1-4.74S81.99,176.67,79.72,176.48z"></path><path class="st2" d="M170.63,203.17c0,0,225.43-5.39,225.5-5.52c2.47-2.94,3.25-7.21,1.97-10.83c-0.44-1.25-1.19-2.5-2.4-3.04
		l-193.84-4.1c0,0-31.24,2.88-31.23,3.05C171.28,189.38,171.27,196.08,170.63,203.17z"></path><path class="st1" d="M300.82,126.99c-1.98-1.98-4.79-2.88-7.54-3.4c-10.5-1.98-21.82,0.87-30.13,7.59
		c-2.27,1.83-4.36,3.99-5.64,6.61c-2.15,4.4-1.81,9.58-1.11,14.42c0.72,4.92,1.76,9.78,2.98,14.6c2.07,8.23,4.71,16.48,9.58,23.42
		c4.13-1.9,6.29-6.55,7.02-11.04c0.72-4.48,0.35-9.09,1.1-13.57c0.29-1.72,0.76-3.44,1.7-4.9c0.7-1.09,1.64-2.01,2.37-3.07
		c3.16-4.63,1.86-11.08,4.29-16.13c1.22-2.54,3.38-4.61,5.97-5.72c2.11-0.9,4.46-1.18,6.48-2.26
		C299.89,132.44,301.57,130.1,300.82,126.99z"></path><path class="st3" d="M267.49,221.3c-3.08-6.42-6.24-12.81-9.16-19.11c2.5,0.97,4.99,1.94,7.49,2.9c2.84,1.1,5.69,2.21,8.65,2.91
		c2.72,0.64,5.5,0.94,8.28,1.17c2.04,0.17,4.09,0.29,6.12,0.06c2.81-0.33,5.49-1.35,8.08-2.48c1.03-0.45,2.08-0.93,2.86-1.73
		c0.86-0.88,1.32-2.06,1.79-3.2s1.02-2.3,1.99-3.06s2.46-0.99,3.8,0.12c5.85,3.52,11.6,7.4,16.07,12.56
		c7.12,8.22,10.45,19.01,12.81,30.19c1.18,15.8,0.97,31.7-0.64,47.47c0,0-3.44,22.39-3.53,23.38c-1.48,8.89-3.14,17.76-4.96,26.59
		c0,0-7.53,29.69-7.83,29.61c-5.58,3.73-12.07,5.97-18.69,7.06c-6.62,1.08-13.39,1.04-20.08,0.47c-2.1-0.18-4.19-0.41-6.26-0.81
		c-3.83-0.74-7.56-2.06-11-3.9c0,0-3.14-14.53-3.28-14.64c-2.58-12.51-6.71-24.69-12.26-36.2l-2.32-4.84l23.83-69.08L267.49,221.3z"></path><path class="st1" d="M256.6,342.79c10.01,7.68,23.35,10.27,35.87,8.66c12.52-1.6,24.28-7.09,34.75-14.14l-1.56,8.71l-6.19,22.71
		c0,0-7.23,3.91-7.22,3.95c-6.95,1.96-14.03,3.77-21.25,3.87c-2.5,0.03-5-0.14-7.5-0.32c-7.02-0.5-14.36-1.12-20.3-4.89
		c0,0-1.8-10.48-1.74-10.81C259.26,355.02,258.93,348.89,256.6,342.79z"></path><path class="st4" d="M300.67,127.49c6.23,7.03,10.07,15.98,11.79,25.22c0,0,0.59,0.43,0.64,0.59c3.33,1.57,7.11,1.81,10.61,2.95
		c0,0-10.15,1.85-10.22,2.13c2.22,7.97,2.76,16.4,1.25,25.01c-0.41,2.42-0.91,5.02-2.69,6.71c-1.4,1.33-3.42,1.87-5.35,1.79
		c-0.44-0.02-0.89-0.06-1.3,0.1c-0.41,0.16-0.74,0.61-0.6,1.03c0,0-2.23,11.63-1.95,11.94c3.33,7.14,4.94,15.07,4.64,22.94
		c-0.07,1.88-0.27,3.81-1.16,5.46c-1.28,2.38-3.92,3.86-6.61,4.16c-2.69,0.3-5.41-0.45-7.82-1.69c-2.41-1.24-4.54-2.94-6.69-4.78
		c-7.19-6.45-11.93-15.14-16.17-23.82c0,0-3.51-2.22-3.53-2.56c1.53-1.84,2.29-4.22,2.64-6.58c0.35-2.37,0.32-4.78,0.48-7.17
		c0.02-0.24,0.03-0.48,0.12-0.7c0.14-0.35,0.45-0.61,0.75-0.85c1.34-1.08,2.78-2.22,3.36-3.84c0.65-1.8,0.1-3.79-0.14-5.69
		c-0.65-5.08,0.93-10.15,2.47-15.01c-2.77-2.08-4.19-5.56-4.6-9c-0.17-1.45-0.11-3.12,0.96-4.12c0.92-0.85,2.37-0.93,3.51-0.43
		c1.15,0.49,2.02,1.47,2.69,2.52c-0.02-1.72,0.28-3.44,0.87-5.05c0.51-1.39,1.24-2.85,0.83-4.27c-0.18-0.64-0.58-1.19-0.93-1.75
		c-0.75-1.21-1.3-2.62-1.09-4.03c0.28-1.86,1.82-3.28,3.47-4.17c2.98-1.61,6.45-1.95,9.99-2.24c2.07-0.2,4.16-0.4,6.13-1.06
		c0.85-0.28,1.68-0.66,2.34-1.26C300.04,129.38,300.5,128.51,300.67,127.49z"></path><path class="st4" d="M336.84,268.22l-0.7,13.32c3.55,2.57,7.63,4.84,12.01,4.67c0.78-0.03,1.57-0.14,2.31-0.38
		c1.12-0.36,2.13-1,3.04-1.74c2.72-2.21,4.57-5.32,5.97-8.53c1.4-3.22,2.39-6.59,3.7-9.84c1.1-5.06,2.03-9.84,2.96-14.62
		c0.71-3.68,1.43-7.41,1.14-11.15c-0.05-0.26,0.72-16.69,0.72-16.69l-0.22-24.98l-6.46-0.17c0.17-2.2-0.11-4.44-0.82-6.53
		c1.97-0.17,3.78-1.13,5.49-2.13c0.45-0.27,0.92-0.55,1.22-0.98c0.64-0.93,0.16-2.4-0.9-2.78c-0.16-0.06-0.33-0.1-0.45-0.21
		c-0.08-0.08-0.13-0.2-0.17-0.31c-0.41-1.1-0.59-2.28-1.05-3.36s-1.29-2.1-2.44-2.35c-0.74-0.16-1.51,0.03-2.2,0.33
		c-0.34,0.15-0.72,0.32-1.06,0.19c-0.35-0.14-0.51-0.54-0.75-0.83c-0.5-0.61-1.41-0.75-2.16-0.53s-1.38,0.74-1.96,1.27
		c-0.08,0.08-0.16,0.15-0.27,0.19c-0.33,0.11-0.61-0.25-0.86-0.5c-0.76-0.73-2-0.54-2.99-0.15c-1.76,0.68-3.34,1.81-4.57,3.24
		c0.94,0.08,1.88,0.16,2.83,0.23c0.68,0.06,1.38,0.12,1.99,0.43c0.91,0.47,1.45,1.44,1.84,2.39c0.42,1.03,0.73,2.1,0.91,3.2
		c0.3,1.83,0.25,3.75-0.4,5.48c-0.64,1.74-1.92,3.28-3.62,4.03c-0.09,0.06-3.43,0.39-3.43,0.39l4.49,5.49l-7.09,35.34
		c-1.08-5.54-3.23-10.88-6.3-15.62c-0.54-0.84-1.32-1.77-2.31-1.67c-2.06-6.56-5.26-12.75-10.15-17.39
		c-4.9-4.63-11.63-7.56-18.35-6.98c8.45,5.25,15,13.22,19.85,21.91c3.89,6.98,6.77,14.46,9.79,22.06
		C336.98,250.59,336.33,259.43,336.84,268.22z"></path><path class="st4" d="M258.23,202.46c7.6,12.08,12.58,25.8,14.49,39.95c1.05,7.8,1.13,16.01-2,23.29c-1.38,2.2-2.77,4.43-4.59,6.28
		c-1.82,1.85-4.14,3.32-6.72,3.67c0,0-0.98,11.66-1.03,11.83c-1.24,5.76-2.99,11.41-5.23,16.86c-1.43,3.48-3.1,6.94-5.88,9.8
		c-3.44,3.27-8.11,5.22-12.86,5.37s-9.53-1.5-13.18-4.54c-1.78-1.49-3.29-3.28-4.77-5.07c-3.35-4.03-6.77-8.27-8.01-13.36
		l-14.94-38.85l-8.12-20.79l-10.89-27.7l-3.24-6.11c0,0,17.53-0.4,17.64-0.65c0.52-3.73,2.35-7.27,5.1-9.85
		c1.26-1.19,2.7-2.16,4.14-3.14c0,0-7.71,0.47-7.79,0.25c-1.3-0.56-2.16-1.94-3.52-2.32c-0.69-0.19-1.41-0.11-2.13-0.14
		c-1.64-0.07-3.24-0.79-4.38-1.97c-0.14,0.68-0.75,1.18-1.41,1.38c-0.66,0.2-1.37,0.14-2.06,0.05c-2.1-0.27-4.16-0.84-6.14-1.79
		c-0.17-3.13-0.58-6.25-1.22-9.32c-0.06-0.27-0.11-0.56,0.03-0.79c0.06-0.1,0.16-0.19,0.25-0.26c1.84-1.44,4.74-1.26,6.38,0.39
		c0.12,0.12,0.25,0.25,0.41,0.28c0.25,0.04,0.47-0.16,0.65-0.33c2.05-1.92,5.48-2.14,7.76-0.49c0.25,0.18,0.51,0.39,0.82,0.4
		c0.36,0.01,0.66-0.24,0.95-0.46c1.79-1.33,4.47-1.32,6.25,0.03c0.25,0.19,0.51,0.41,0.82,0.39c0.22-0.01,0.41-0.15,0.59-0.27
		c1.13-0.76,2.58-1.33,3.84-0.81c1.14,0.47,1.77,1.69,2.3,2.8c0.86,1.82,1.73,3.64,2.59,5.46c0,0,4.61-0.09,4.58,0.07
		c0.51,0.11,0.83,0.62,0.94,1.12c0.11,0.51,0.05,1.03,0.1,1.55l-3.1,19.96c0,0,18.26,40.49,18.45,40.42
		c-0.48-7.99-0.27-16.35,3.3-24.05c0.17-5.12,2.31-10.15,5.89-13.81c3.57-3.67,8.54-5.94,13.65-6.25l8.14,0.13L258.23,202.46z"></path><path class="st3" d="M178.56,219.32l7.01,17.72c0,0,1.67,0.33,1.79,0.19c2.3,0.21,4.63,0.41,6.92,0.09
		c2.46-0.35,4.78-1.29,7.08-2.23c1.5-0.61,3-1.22,4.38-2.06c1.46-0.89,2.76-2.02,4.05-3.14c1.75-1.52,3.52-3.07,4.73-5.04
		c0,0-7.03-15.55-7.08-15.57c-2.47,2.48-5.03,4.95-8.11,6.6c-1.55,0.83-3.22,1.45-4.9,1.96c-1.99,0.61-4.03,1.07-6.09,1.36
		C185.29,219.63,182.19,219.65,178.56,219.32z"></path><path class="st3" d="M349.72,207.78l-2.09,10.54c0,0,1.31,0.46,1.39,0.49c2.96,1.41,6.14,2.44,9.41,2.65s6.65-0.43,9.43-2.17
		c0,0-0.02-10.6-0.11-10.53C362.14,210.66,355.82,210.4,349.72,207.78z"></path><ellipse class="st1" transform="matrix(0.9462 -0.3236 0.3236 0.9462 -31.8628 103.7699)" cx="296.14" cy="147.71" rx="1.62" ry="3.25"></ellipse><ellipse class="st1" transform="matrix(0.9462 -0.3236 0.3236 0.9462 -30.2765 107.0488)" cx="306.79" cy="144.58" rx="1.62" ry="3.25"></ellipse><path class="st1" d="M399.19,238.38c-15.35,0-28.19-16.83-30.52-40.03c-0.03-0.27,0.17-0.52,0.45-0.55
		c0.25-0.03,0.52,0.17,0.55,0.45c2.24,22.31,14.94,39.13,29.53,39.13c16.48,0,29.88-20.77,29.88-46.3c0-25.53-13.41-46.3-29.88-46.3
		c-14.53,0-26.91,16.08-29.43,38.23c-0.03,0.27-0.29,0.48-0.55,0.44c-0.27-0.03-0.47-0.28-0.44-0.55
		c2.58-22.66,15.37-39.11,30.42-39.11c17.03,0,30.88,21.22,30.88,47.3C430.07,217.16,416.22,238.38,399.19,238.38z"></path><path class="st1" d="M347.25,286.69c-4.11,0-7.99-2.28-10.71-4.4c-0.22-0.17-0.26-0.48-0.09-0.7c0.17-0.22,0.49-0.26,0.7-0.09
		c3.07,2.4,7.71,5.03,12.31,3.93c3.9-0.93,7.12-4.29,9.84-10.26c5.76-12.66,7.17-26.96,7.79-39.28c0.51-10.21,0.56-20.57,0.13-30.8
		c0.02-0.55,0.02-6.7,0.02-6.76c0-0.28,0.22-0.5,0.5-0.5s0.5,0.22,0.5,0.5c0,0.25,0,6.23-0.02,6.76
		c0.43,10.22,0.39,20.61-0.13,30.85c-0.62,12.42-2.05,26.84-7.88,39.64c-2.85,6.27-6.29,9.81-10.52,10.82
		C348.88,286.6,348.06,286.69,347.25,286.69z"></path><path class="st1" d="M288.44,377.03c-1.04,0-2.1-0.02-3.19-0.04c-6.91-0.19-14.96-0.93-22.21-5.01c-0.13-0.07-0.22-0.21-0.25-0.36
		c-3.08-19.14-8.99-37.66-17.57-55.04c-0.12-0.25-0.02-0.55,0.23-0.67c0.25-0.12,0.55-0.02,0.67,0.23
		c8.59,17.4,14.52,35.93,17.63,55.08c6.98,3.86,14.47,4.57,21.54,4.77c14.87,0.42,25.61-2,33.77-7.59
		c8.07-27.56,13.69-56.66,16.7-86.49c0.77-10.91,0.78-22.1,0.03-33.22c-0.4-5.98-1.03-12.35-2.92-18.47
		c-2.01-6.52-5.29-11.95-9.51-15.7c-0.21-0.18-0.22-0.5-0.04-0.71c0.18-0.21,0.5-0.23,0.71-0.04c4.35,3.87,7.74,9.45,9.8,16.15
		c1.91,6.21,2.55,12.66,2.96,18.7c0.75,11.17,0.74,22.4-0.03,33.38c-3.02,29.97-8.67,59.18-16.78,86.86
		c-0.03,0.11-0.1,0.21-0.2,0.27C312,374.49,301.98,377.03,288.44,377.03z M319.48,368.7L319.48,368.7L319.48,368.7z"></path><path class="st1" d="M298.92,237.99c-2.39,0-4.66-0.75-6.13-1.37c-2.16-0.91-4.19-2.1-6.04-3.53c-2.04-1.58-3.98-3.54-6.3-6.36
		c-4.64-5.64-8.53-11.87-11.56-18.53c-0.11-0.25,0-0.55,0.25-0.66c0.25-0.11,0.55,0,0.66,0.25c2.99,6.57,6.84,12.73,11.42,18.3
		c2.27,2.76,4.16,4.67,6.14,6.21c1.78,1.38,3.73,2.53,5.81,3.4c2.3,0.97,6.66,2.27,10.03,0.14c1.59-1.01,2.83-2.76,3.48-4.92
		c0.66-2.17,0.67-4.5,0.62-6.29c-0.23-7.03-2.06-14.05-5.28-20.3c-0.13-0.25-0.03-0.55,0.22-0.67s0.55-0.03,0.67,0.22
		c3.29,6.38,5.15,13.55,5.39,20.72c0.06,1.87,0.04,4.3-0.66,6.62c-0.72,2.4-2.11,4.34-3.9,5.48
		C302.22,237.65,300.54,237.99,298.92,237.99z"></path><path class="st1" d="M259.63,276.19c-0.23,0-0.43-0.16-0.49-0.39c-0.06-0.27,0.1-0.54,0.37-0.6c4.73-1.11,8.9-4.96,11.14-10.29
		c1.75-4.17,2.42-9.02,2.18-15.72c-0.6-16.35-5.68-32.21-14.7-45.86c-0.15-0.23-0.09-0.54,0.14-0.69c0.23-0.15,0.54-0.09,0.69,0.14
		c9.12,13.81,14.26,29.84,14.86,46.38c0.17,4.62,0.07,10.63-2.26,16.15c-2.37,5.63-6.79,9.7-11.84,10.88
		C259.71,276.18,259.67,276.19,259.63,276.19z"></path><path class="st1" d="M263.01,281.05c-0.22,0-0.43-0.15-0.48-0.38c-0.07-0.27,0.09-0.54,0.36-0.61c4.23-1.08,7.13-4.65,8.82-7.44
		c3.02-4.99,4.65-11.26,4.73-18.12c0.06-5.49-0.82-11.47-2.78-18.82c-0.07-0.27,0.09-0.54,0.35-0.61c0.28-0.07,0.54,0.09,0.61,0.35
		c1.98,7.44,2.87,13.51,2.81,19.09c-0.08,7.04-1.76,13.49-4.87,18.63c-1.79,2.96-4.87,6.72-9.43,7.89
		C263.09,281.04,263.05,281.05,263.01,281.05z"></path><path class="st1" d="M300.01,243.5c-0.9,0-1.75-0.09-2.5-0.19c-1.89-0.25-3.38-0.61-4.69-1.14c-2.62-1.06-4.82-2.92-6.62-4.61
		c-3.44-3.22-6.54-6.83-9.21-10.73c-0.16-0.23-0.1-0.54,0.13-0.7c0.23-0.15,0.54-0.1,0.69,0.13c2.63,3.83,5.68,7.39,9.07,10.56
		c1.73,1.62,3.83,3.41,6.3,4.41c1.23,0.5,2.64,0.84,4.44,1.07c1.46,0.19,3.36,0.34,5.07-0.19c2.14-0.67,4.06-2.48,5.27-4.96
		c1.15-2.34,1.61-5.05,1.94-7.4c0.04-0.27,0.3-0.46,0.57-0.42c0.27,0.04,0.46,0.29,0.42,0.57c-0.35,2.43-0.82,5.22-2.04,7.7
		c-1.33,2.72-3.47,4.71-5.87,5.47C302.02,243.4,300.99,243.5,300.01,243.5z"></path><path class="st1" d="M335.12,242.52c-0.21,0-0.4-0.13-0.47-0.33c-2.83-8.04-6.11-16.56-10.9-24.42
		c-5.14-8.42-11.31-14.81-18.34-18.98c-0.24-0.14-0.32-0.45-0.17-0.69c0.14-0.24,0.45-0.31,0.68-0.17
		c7.17,4.25,13.45,10.75,18.68,19.32c4.85,7.94,8.15,16.52,10.99,24.61c0.09,0.26-0.04,0.55-0.31,0.64
		C335.23,242.51,335.18,242.52,335.12,242.52z"></path><path class="st1" d="M334.22,248.32c-0.22,0-0.43-0.15-0.49-0.38c-3-11.93-8.41-23.51-15.64-33.46c-0.16-0.22-0.11-0.54,0.11-0.7
		c0.22-0.16,0.54-0.11,0.7,0.11c7.3,10.06,12.77,21.75,15.8,33.81c0.07,0.27-0.1,0.54-0.36,0.61
		C334.3,248.31,334.26,248.32,334.22,248.32z"></path><path class="st1" d="M296.8,224.98c-0.16,0-0.33-0.08-0.42-0.23l-3.18-4.98c-0.4-0.63-0.82-1.28-1.4-1.71
		c-0.53-0.39-1.18-0.6-1.93-0.82c-2.83-0.82-5.73-1.51-8.62-2.05c-0.27-0.05-0.45-0.31-0.4-0.58c0.05-0.27,0.32-0.45,0.58-0.4
		c2.92,0.55,5.86,1.25,8.72,2.08c0.84,0.24,1.59,0.48,2.25,0.97c0.72,0.54,1.21,1.3,1.64,1.98l3.18,4.98
		c0.15,0.23,0.08,0.54-0.15,0.69C296.98,224.96,296.89,224.98,296.8,224.98z"></path><path class="st1" d="M301.29,223.04c-0.2,0-0.38-0.12-0.46-0.31c-0.62-1.5-1.18-3.05-1.68-4.6c-0.15-0.48-0.29-0.94-0.32-1.44
		c-0.07-1.11,0.42-2.15,0.81-2.99c0.12-0.25,0.42-0.36,0.66-0.24c0.25,0.12,0.36,0.41,0.24,0.66c-0.36,0.77-0.77,1.65-0.72,2.51
		c0.02,0.39,0.14,0.77,0.28,1.2c0.49,1.52,1.04,3.05,1.65,4.53c0.1,0.26-0.02,0.55-0.27,0.65
		C301.42,223.02,301.36,223.04,301.29,223.04z"></path><path class="st1" d="M232.49,315.03c-0.01,0-0.03,0-0.04,0c-0.27-0.02-0.48-0.27-0.46-0.54c0.14-1.63,1.26-3.15,2.85-3.88
		c1.42-0.65,3.16-0.68,4.79-0.08c1.39,0.51,2.68,1.45,3.82,2.77c0.18,0.21,0.16,0.52-0.05,0.71c-0.21,0.18-0.52,0.16-0.71-0.05
		c-1.03-1.2-2.18-2.04-3.41-2.49c-1.38-0.51-2.84-0.49-4.02,0.05c-1.27,0.58-2.17,1.78-2.27,3.05
		C232.97,314.83,232.75,315.03,232.49,315.03z"></path><path class="st1" d="M360.11,210.45c-3.59,0-7.19-0.69-10.47-2.07c-0.25-0.11-0.37-0.4-0.27-0.65c0.11-0.26,0.4-0.38,0.65-0.27
		c5.47,2.29,11.86,2.62,17.53,0.91c0.27-0.08,0.54,0.07,0.62,0.33s-0.07,0.54-0.33,0.62C365.36,210.08,362.74,210.45,360.11,210.45z
		"></path><path class="st1" d="M359.71,222c-2.65,0-5.59-0.6-8.86-1.81c-1.12-0.41-2.38-0.93-3.28-1.93c-0.19-0.2-0.17-0.52,0.03-0.71
		c0.21-0.18,0.52-0.17,0.71,0.03c0.75,0.83,1.88,1.29,2.89,1.66c5.19,1.91,9.46,2.25,13.06,1.03c1.12-0.38,2.19-0.92,3.23-1.45
		c0.25-0.13,0.55-0.03,0.67,0.22c0.12,0.25,0.03,0.55-0.22,0.67c-1.07,0.54-2.18,1.1-3.36,1.5C363.06,221.74,361.44,222,359.71,222z
		"></path><path class="st1" d="M342,282.9c-0.15,0-0.29-0.06-0.39-0.19c-0.17-0.22-0.14-0.53,0.08-0.7c1.98-1.57,4.93-1.7,7.03-0.29
		c0.23,0.15,0.29,0.46,0.14,0.69c-0.15,0.23-0.47,0.29-0.69,0.14c-1.72-1.15-4.24-1.04-5.86,0.24
		C342.22,282.86,342.11,282.9,342,282.9z"></path><path class="st1" d="M274,335.96c-0.15,0-0.3-0.07-0.4-0.2c-0.17-0.22-0.12-0.53,0.1-0.7c6.38-4.84,12.06-11.62,17.34-20.7
		c3.35-5.77,6.25-11.92,9.06-17.87c1.04-2.2,2.08-4.41,3.14-6.59c1.21-2.49,2.67-4.88,5.17-5.48c0.27-0.06,0.54,0.1,0.6,0.37
		c0.06,0.27-0.1,0.54-0.37,0.6c-2.09,0.5-3.4,2.67-4.5,4.94c-1.06,2.19-2.1,4.38-3.14,6.58c-2.81,5.97-5.72,12.14-9.1,17.94
		c-5.35,9.2-11.11,16.07-17.6,21C274.21,335.93,274.1,335.96,274,335.96z"></path><path class="st1" d="M327.65,312.45c-0.12,0-0.24-0.04-0.33-0.13c-3.26-2.93-4.42-7.29-5.55-11.51c-1.14-4.24-2.21-8.25-5.2-10.99
		c-0.2-0.19-0.22-0.5-0.03-0.71c0.19-0.2,0.5-0.22,0.71-0.03c3.21,2.94,4.37,7.27,5.49,11.47c1.14,4.27,2.22,8.29,5.26,11.03
		c0.21,0.19,0.22,0.5,0.04,0.71C327.92,312.4,327.79,312.45,327.65,312.45z"></path><path class="st1" d="M398.14,226.85c-10.98,0-20.54-12.01-22.73-28.56c-0.04-0.27,0.16-0.52,0.43-0.56
		c0.27-0.04,0.52,0.16,0.56,0.43c2.12,16.04,11.27,27.69,21.74,27.69c12.24,0,22.2-15.6,22.2-34.77s-9.96-34.77-22.2-34.77
		c-10.22,0-19.31,11.31-21.62,26.89c-0.04,0.27-0.3,0.46-0.57,0.42c-0.27-0.04-0.46-0.29-0.42-0.57
		c2.42-16.33,11.72-27.74,22.61-27.74c12.79,0,23.2,16.05,23.2,35.77C421.34,210.8,410.93,226.85,398.14,226.85z"></path><path class="st1" d="M79.38,206.42c-0.28,0-0.5-0.22-0.5-0.5s0.22-0.5,0.5-0.5c4.2,0,7.62-6.39,7.62-14.25s-3.42-14.25-7.62-14.25
		c-0.28,0-0.5-0.22-0.5-0.5s0.22-0.5,0.5-0.5c4.76,0,8.62,6.84,8.62,15.25S84.13,206.42,79.38,206.42z"></path><path class="st1" d="M79.5,206.42h-28c-0.28,0-0.5-0.22-0.5-0.5s0.22-0.5,0.5-0.5h28c0.28,0,0.5,0.22,0.5,0.5
		S79.78,206.42,79.5,206.42z"></path><path class="st1" d="M79.5,176.92h-28c-0.28,0-0.5-0.22-0.5-0.5s0.22-0.5,0.5-0.5h28c0.28,0,0.5,0.22,0.5,0.5
		S79.78,176.92,79.5,176.92z"></path><path class="st2" d="M54.37,158.06c-0.48,0-0.88-0.4-1.03-1.05c-0.17-0.75-0.22-1.52-0.26-2.27c-0.06-1.12-0.12-2.17-0.59-3.08
		c-0.11-0.22-0.23-0.31-0.26-0.32c-0.01,0-0.07,0.04-0.21,0.25c-1.13,1.66-1.82,3.6-1.98,5.61c-0.02,0.27-0.26,0.48-0.54,0.46
		c-0.27-0.02-0.48-0.26-0.46-0.54c0.17-2.18,0.91-4.29,2.15-6.1c0.12-0.18,0.41-0.61,0.91-0.67c0.51-0.07,0.97,0.24,1.28,0.85
		c0.56,1.1,0.63,2.31,0.7,3.48c0.04,0.74,0.08,1.43,0.24,2.1c0.01,0.05,0.03,0.1,0.04,0.13c0.01-0.04,0.02-0.09,0.03-0.16
		c0.33-2.36,0.52-4.77,0.57-7.15c0-0.12,0.01-0.32,0.12-0.51c0.16-0.29,0.47-0.43,0.79-0.38c0.43,0.07,0.85,0.48,0.94,0.93
		c0.02,0.09,0.03,0.19,0.05,0.29c0.02,0.13,0.05,0.37,0.1,0.42c0.04-0.01,0.2-0.12,0.33-0.32c0.19-0.3,0.34-0.63,0.5-0.99
		c0.37-0.82,0.8-1.75,1.73-2.18c0.18-0.08,0.39-0.15,0.59-0.21c0.41-0.13,0.66-0.21,0.73-0.39c0.1-0.26,0.4-0.38,0.65-0.27
		c0.26,0.1,0.38,0.4,0.27,0.65c-0.26,0.62-0.87,0.81-1.36,0.96c-0.16,0.05-0.32,0.1-0.47,0.17c-0.59,0.27-0.91,0.96-1.24,1.69
		c-0.17,0.37-0.35,0.76-0.57,1.11c-0.43,0.68-1.1,0.95-1.64,0.67c-0.34-0.18-0.48-0.48-0.55-0.78c-0.07,2.17-0.25,4.32-0.54,6.43
		c-0.13,0.94-0.63,1.12-0.92,1.15C54.43,158.06,54.4,158.06,54.37,158.06z"></path><path class="st2" d="M64.93,146.84c-0.23,0-0.44-0.16-0.49-0.39l-1.72-7.93c-0.06-0.27,0.11-0.54,0.38-0.59
		c0.27-0.06,0.54,0.11,0.59,0.38l1.72,7.93c0.06,0.27-0.11,0.54-0.38,0.59C65.01,146.83,64.97,146.84,64.93,146.84z"></path><path class="st2" d="M64.12,142.82c-0.15,0-0.29-0.07-0.39-0.18c-0.13-0.16-0.15-0.39-0.04-0.57l3.31-5.64
		c0.14-0.24,0.44-0.32,0.68-0.18c0.24,0.14,0.32,0.45,0.18,0.68l-2.66,4.53c1.37-0.38,2.76-0.64,4.18-0.77
		c0.29-0.03,0.52,0.18,0.54,0.45c0.02,0.27-0.18,0.52-0.45,0.54c-1.76,0.16-3.51,0.53-5.19,1.11
		C64.23,142.81,64.17,142.82,64.12,142.82z"></path><path class="st2" d="M73.06,142.42c-0.75,0-1.51-0.44-1.96-1.15c-0.35-0.54-0.54-1.2-0.58-2.03c-0.11-2.01,0.67-4.06,2.1-5.48
		c0.2-0.2,0.51-0.19,0.71,0c0.2,0.2,0.19,0.51,0,0.71c-1.23,1.22-1.9,2.99-1.81,4.72c0.04,0.65,0.18,1.16,0.42,1.54
		c0.27,0.42,0.72,0.7,1.13,0.7c0.73,0,1.29-0.76,1.49-1.09c0.38-0.61,0.64-1.31,0.75-2.02c0.01-0.09,0.05-0.35-0.02-0.46
		c-0.02-0.03-0.05-0.07-0.14-0.08c-0.07-0.01-0.15-0.01-0.23,0c-0.19,0.1-0.4,0.2-0.62,0.26c-0.24,0.07-0.48-0.05-0.59-0.27
		c-0.1-0.22-0.03-0.48,0.17-0.62c0.21-0.15,0.45-0.25,0.69-0.32c0.05-0.03,0.09-0.05,0.14-0.08c0.46-0.26,0.99-0.57,1.62-0.44
		c0.68,0.13,1.2,0.71,1.48,1.63c0.04,0.12,0.07,0.25,0.11,0.38c0.11,0.42,0.22,0.81,0.45,1.07c0.18,0.21,0.17,0.52-0.04,0.71
		c-0.21,0.18-0.52,0.17-0.71-0.04c-0.39-0.44-0.54-0.99-0.67-1.48c-0.03-0.12-0.06-0.23-0.1-0.35c-0.06-0.2-0.29-0.86-0.72-0.94
		c-0.01,0-0.02,0-0.02,0c0.01,0.02,0.02,0.03,0.03,0.05c0.23,0.38,0.21,0.8,0.16,1.14c-0.13,0.85-0.43,1.68-0.89,2.41
		C74.78,141.85,73.93,142.42,73.06,142.42z"></path><path class="st2" d="M81.18,255.31c-0.08,0-0.16-0.02-0.24-0.06c-0.24-0.13-0.33-0.44-0.2-0.68c1.28-2.33,2.61-4.73,4.37-6.81
		c0.68-0.79,1.61-1.76,2.85-2.16c0.61-0.2,1.14-0.19,1.58,0.01c1.16,0.54,1.14,2,1.12,2.98c-0.02,1.18,0.16,2.35,0.54,3.48
		c0.12,0.34,0.24,0.46,0.28,0.46c0.01,0,0.06,0,0.19-0.08c1.22-0.67,1.72-2.26,2.16-3.66c0.52-1.65,1.28-3.41,2.94-4.05
		c0.27-0.1,0.51-0.09,0.71,0.05c0.21,0.14,0.31,0.37,0.3,0.68l-0.01,0.2c-0.03,0.6-0.03,1.08,0.16,1.3
		c0.19-0.08,0.37-0.34,0.46-0.58c0.06-0.14,0.1-0.29,0.14-0.44c0.1-0.34,0.22-0.72,0.46-1.06c0.26-0.37,0.7-0.62,1.13-0.66
		c0.34-0.04,0.67,0.07,0.91,0.3c0.2,0.19,0.21,0.51,0.02,0.71c-0.19,0.2-0.51,0.21-0.71,0.02c-0.01-0.01-0.04-0.04-0.12-0.03
		c-0.15,0.01-0.32,0.12-0.41,0.25c-0.15,0.2-0.23,0.48-0.32,0.77c-0.05,0.17-0.11,0.34-0.17,0.51c-0.24,0.61-0.73,1.29-1.53,1.24
		c-0.08,0-0.16-0.02-0.23-0.06c-0.8-0.43-0.83-1.34-0.8-2.09c-1.03,0.62-1.57,1.96-1.97,3.23c-0.47,1.5-1.06,3.36-2.63,4.23
		c-0.19,0.1-0.44,0.21-0.74,0.2c-0.36-0.02-0.86-0.24-1.16-1.14c-0.42-1.23-0.62-2.51-0.6-3.81c0.02-0.94-0.01-1.81-0.54-2.05
		c-0.26-0.12-0.61-0.05-0.86,0.03c-1,0.32-1.8,1.16-2.39,1.86c-1.7,2-3,4.36-4.26,6.64C81.53,255.21,81.36,255.31,81.18,255.31z"></path><path class="st2" d="M106.12,245.11c-0.2,0-0.38-0.12-0.46-0.31l-3.41-8.21c-0.11-0.25,0.02-0.55,0.27-0.65
		c0.26-0.1,0.55,0.01,0.65,0.27l3.41,8.21c0.11,0.26-0.02,0.55-0.27,0.65C106.25,245.1,106.19,245.11,106.12,245.11z"></path><path class="st2" d="M104.94,240.94c-0.08,0-0.16-0.01-0.25-0.02c-0.25-0.05-0.45-0.19-0.56-0.39c-0.16-0.29-0.07-0.58-0.03-0.71
		l1.6-5.26c0.08-0.26,0.36-0.41,0.62-0.33c0.26,0.08,0.41,0.36,0.33,0.62l-1.54,5.05c0.11-0.04,0.23-0.1,0.31-0.15l3.94-2.08
		c0.25-0.13,0.55-0.04,0.68,0.21c0.13,0.24,0.04,0.55-0.21,0.68l-3.94,2.08C105.66,240.76,105.33,240.94,104.94,240.94z"></path><path class="st2" d="M111.29,235.81c-0.6,0-1.23-0.27-1.7-0.76c-0.4-0.4-0.69-0.94-0.91-1.64c-0.71-2.32-0.09-4.95,1.58-6.71
		c0.19-0.2,0.51-0.21,0.71-0.02c0.2,0.19,0.21,0.51,0.02,0.71c-1.41,1.48-1.95,3.78-1.35,5.72c0.17,0.54,0.39,0.95,0.67,1.24
		c0.31,0.31,0.72,0.49,1.08,0.45c0.41-0.04,0.82-0.37,1.05-0.83c0.2-0.41,0.29-0.93,0.26-1.62c-0.01-0.31-0.04-0.67-0.19-0.96
		c-0.12-0.24-0.32-0.41-0.52-0.44c-0.18-0.02-0.33-0.14-0.4-0.3c-0.07-0.17-0.04-0.36,0.07-0.5c0.22-0.29,0.81-1.05,1.65-0.9
		c0.7,0.13,1.14,0.82,1.17,1.87c0.01,0.28,0.03,0.95,0.31,1.07c0.25,0.11,0.36,0.41,0.25,0.66c-0.11,0.25-0.41,0.37-0.66,0.25
		c-0.33-0.15-0.54-0.41-0.67-0.7c0.02,0.82-0.1,1.46-0.36,2.01c-0.38,0.78-1.09,1.31-1.84,1.38
		C111.42,235.81,111.36,235.81,111.29,235.81z M112.9,230.31c0.21,0.17,0.38,0.38,0.51,0.64c0.02,0.05,0.05,0.1,0.07,0.15
		c-0.02-0.41-0.14-0.82-0.35-0.86C113.06,230.23,112.98,230.25,112.9,230.31z"></path><path class="st2" d="M375.92,165.89c-0.03,0-0.06,0-0.09-0.01c-0.27-0.05-0.45-0.31-0.4-0.58c0.15-0.82,0.31-1.67,0.7-2.47
		c0.46-0.95,1.17-1.62,2-1.9c0.14-0.05,0.29-0.03,0.41,0.04c0.12,0.07,0.21,0.2,0.24,0.34l0.48,2.61c0.05,0.27,0.1,0.34,0.11,0.35
		c-0.02-0.03,0.12-0.2,0.21-0.47c0.28-0.88,0.53-1.78,0.73-2.68c0.24-1.04,0.7-1.58,1.37-1.63c0.11-0.01,0.22,0,0.33,0.02
		c0.04,0,0.08,0.01,0.13,0.01h0c0.19,0,0.39-0.18,0.63-0.39c0.18-0.16,0.39-0.34,0.64-0.47c0.24-0.13,0.55-0.04,0.68,0.21
		c0.13,0.24,0.04,0.55-0.21,0.68c-0.15,0.08-0.29,0.21-0.45,0.34c-0.32,0.28-0.72,0.63-1.28,0.63c-0.09-0.01-0.17-0.01-0.25-0.02
		c-0.05-0.01-0.09-0.02-0.14-0.01c-0.17,0.01-0.34,0.33-0.46,0.85c-0.21,0.93-0.47,1.86-0.76,2.76c-0.08,0.24-0.31,0.82-0.79,1.06
		c-0.23,0.11-0.48,0.13-0.72,0.05c-0.58-0.2-0.71-0.86-0.75-1.1l-0.36-1.95c-0.35,0.26-0.66,0.64-0.89,1.11
		c-0.33,0.67-0.47,1.46-0.61,2.21C376.36,165.73,376.15,165.89,375.92,165.89z"></path><path class="st2" d="M387.16,157.76c-0.23,0-0.44-0.17-0.49-0.4c-0.3-1.54-0.57-3.1-0.78-4.64c-0.04-0.27,0.15-0.53,0.43-0.56
		c0.27-0.04,0.53,0.15,0.56,0.43c0.21,1.52,0.47,3.06,0.77,4.58c0.05,0.27-0.12,0.53-0.39,0.59
		C387.23,157.76,387.19,157.76,387.16,157.76z"></path><path class="st2" d="M386.92,155.87c-0.15,0-0.3-0.07-0.4-0.2c-0.12-0.15-0.13-0.36-0.05-0.53c0.73-1.41,1.55-2.77,2.45-4.06
		c0.16-0.23,0.47-0.28,0.7-0.12c0.23,0.16,0.28,0.47,0.12,0.7c-0.67,0.96-1.3,1.97-1.87,3c0.64-0.15,1.29-0.31,1.92-0.48
		c0.27-0.07,0.54,0.08,0.61,0.35c0.07,0.27-0.08,0.54-0.35,0.61c-1,0.27-2.03,0.52-3.04,0.73
		C386.99,155.87,386.95,155.87,386.92,155.87z"></path><path class="st2" d="M393.04,155.29c-0.04,0-0.09,0-0.14-0.01c-0.32-0.06-0.51-0.31-0.59-0.42c-0.39-0.52-0.84-1.11-1.04-1.83
		c-0.41-1.47,0.34-2.98,0.84-3.98c0.12-0.25,0.42-0.35,0.67-0.23c0.25,0.12,0.35,0.42,0.23,0.67c-0.57,1.14-1.05,2.25-0.77,3.27
		c0.15,0.53,0.5,1.01,0.86,1.48c0.3-0.22,0.5-0.53,0.58-0.9c0.09-0.41,0.02-0.81-0.19-1.12c-0.08-0.11-0.1-0.25-0.08-0.38
		c0.03-0.13,0.1-0.25,0.21-0.32c0.31-0.2,0.64-0.37,0.99-0.5c0.08-0.03,0.28-0.1,0.5-0.02c0.25,0.09,0.36,0.3,0.4,0.37
		c0.25,0.47,0.47,0.96,0.66,1.46c0.1,0.26-0.03,0.55-0.29,0.65c-0.25,0.1-0.55-0.03-0.65-0.29c-0.15-0.39-0.32-0.77-0.51-1.15
		c-0.06,0.03-0.12,0.05-0.17,0.08c0.16,0.43,0.2,0.93,0.09,1.41c-0.14,0.67-0.54,1.25-1.08,1.58
		C393.49,155.17,393.3,155.29,393.04,155.29z"></path><path class="st2" d="M397.46,234.62c-0.16,0-0.31-0.07-0.41-0.21c-0.16-0.23-0.11-0.54,0.12-0.7c1.31-0.93,2.49-2.02,3.5-3.26
		l0.24-0.3c0.77-0.95,1.64-2.03,2.95-2.33c0.48-0.11,0.76,0.05,0.91,0.2c0.3,0.3,0.24,0.7,0.22,0.85c-0.04,0.29-0.1,0.58-0.15,0.87
		c-0.14,0.73-0.28,1.43-0.15,2.09c0.04,0.22,0.11,0.38,0.19,0.47c0.24,0.25,0.75,0.18,1.12,0.04c1.39-0.53,2.41-2.03,2.49-3.63
		c0.01-0.13,0.01-0.26,0.01-0.38c0.01-0.51,0.01-1.1,0.31-1.62c0.26-0.46,0.79-0.79,1.33-0.8c0.43-0.02,0.8,0.18,1.02,0.52
		c0.12,0.2,0.17,0.41,0.21,0.58c0.02,0.09,0.05,0.23,0.08,0.26c0.07,0.02,0.3-0.08,0.44-0.14c0.35-0.15,0.8-0.33,1.26-0.16
		c0.26,0.09,0.4,0.38,0.3,0.64c-0.09,0.26-0.38,0.4-0.64,0.3c-0.1-0.04-0.35,0.06-0.55,0.14c-0.39,0.16-0.99,0.4-1.48-0.04
		c-0.27-0.24-0.34-0.55-0.39-0.78c-0.02-0.11-0.05-0.21-0.08-0.27c-0.01-0.01-0.04-0.05-0.14-0.05c-0.18,0.01-0.4,0.13-0.49,0.29
		c-0.17,0.31-0.18,0.72-0.18,1.15c0,0.14,0,0.28-0.01,0.42c-0.1,2.02-1.36,3.84-3.13,4.52c-0.89,0.34-1.71,0.23-2.2-0.29
		c-0.22-0.24-0.37-0.56-0.45-0.97c-0.16-0.85,0-1.67,0.15-2.46c0.05-0.24,0.09-0.48,0.13-0.71c-0.95,0.29-1.63,1.13-2.29,1.95
		l-0.25,0.3c-1.07,1.31-2.31,2.47-3.7,3.45C397.66,234.59,397.56,234.62,397.46,234.62z"></path><path class="st2" d="M416.09,225.73c-0.15,0-0.3-0.07-0.4-0.2c-0.98-1.31-1.79-2.75-2.39-4.28c-0.1-0.26,0.02-0.55,0.28-0.65
		c0.26-0.1,0.55,0.02,0.65,0.28c0.57,1.44,1.33,2.8,2.26,4.05c0.17,0.22,0.12,0.53-0.1,0.7C416.3,225.7,416.2,225.73,416.09,225.73z
		"></path><path class="st2" d="M417.88,223.56c0,0-0.01,0-0.01,0c-1.01-0.03-2.03-0.09-3.04-0.18c-0.15-0.01-0.29-0.1-0.37-0.22
		c-0.08-0.13-0.1-0.29-0.06-0.43c0.34-1.02,0.72-2.05,1.14-3.06c0.1-0.25,0.4-0.37,0.65-0.27c0.25,0.1,0.38,0.4,0.27,0.65
		c-0.33,0.79-0.63,1.59-0.91,2.39c0.78,0.06,1.57,0.1,2.34,0.12c0.28,0.01,0.49,0.24,0.49,0.51
		C418.37,223.34,418.15,223.56,417.88,223.56z"></path><path class="st2" d="M419.7,220.58c-0.42,0-0.86-0.17-1.2-0.48c-0.36-0.32-0.62-0.76-0.8-1.36c-0.43-1.44-0.21-3.06,0.58-4.33
		c0.15-0.23,0.46-0.3,0.69-0.16c0.23,0.15,0.31,0.46,0.16,0.69c-0.65,1.03-0.82,2.35-0.47,3.52c0.13,0.42,0.29,0.71,0.5,0.91
		c0.21,0.19,0.51,0.27,0.71,0.19c0.36-0.14,0.51-0.68,0.58-1.12c0.02-0.14,0.04-0.28,0.02-0.38c-0.04-0.08-0.11-0.08-0.15-0.08
		c-0.17-0.01-0.42-0.02-0.64-0.21c-0.14-0.11-0.2-0.28-0.18-0.45c0.02-0.17,0.13-0.32,0.29-0.39l0.48-0.21
		c0.09-0.04,0.32-0.14,0.57-0.04c0.18,0.07,0.27,0.2,0.32,0.27l0.92,1.3c0.16,0.23,0.11,0.54-0.12,0.7
		c-0.18,0.13-0.42,0.12-0.59-0.01c-0.19,0.82-0.58,1.34-1.14,1.56C420.06,220.55,419.88,220.58,419.7,220.58z"></path><path class="st1" d="M81,244.78c-15.28,0-28.47-16-32.07-38.91c-0.04-0.27,0.14-0.53,0.42-0.57c0.27-0.04,0.53,0.14,0.57,0.42
		c3.52,22.41,16.3,38.06,31.08,38.06c17.65,0,32-22.43,32-50s-14.35-50-32-50c-13.28,0-25.33,13.06-29.98,32.51
		c-0.06,0.27-0.33,0.44-0.6,0.37c-0.27-0.06-0.43-0.33-0.37-0.6c4.77-19.9,17.21-33.28,30.96-33.28c18.2,0,33,22.88,33,51
		S99.2,244.78,81,244.78z"></path><path class="st1" d="M398.14,226.85c-10.98,0-20.54-12.01-22.73-28.56c-0.04-0.27,0.16-0.52,0.43-0.56
		c0.27-0.04,0.52,0.16,0.56,0.43c2.12,16.04,11.27,27.69,21.74,27.69c12.24,0,22.2-15.6,22.2-34.77s-9.96-34.77-22.2-34.77
		c-10.22,0-19.31,11.31-21.62,26.89c-0.04,0.27-0.3,0.46-0.57,0.42c-0.27-0.04-0.46-0.29-0.42-0.57
		c2.42-16.33,11.72-27.74,22.61-27.74c12.79,0,23.2,16.05,23.2,35.77C421.34,210.8,410.93,226.85,398.14,226.85z"></path><path class="st1" d="M81,244.78c-15.28,0-28.47-16-32.07-38.91c-0.04-0.27,0.14-0.53,0.42-0.57c0.27-0.04,0.53,0.14,0.57,0.42
		c3.52,22.41,16.3,38.06,31.08,38.06c17.65,0,32-22.43,32-50s-14.35-50-32-50c-13.28,0-25.33,13.06-29.98,32.51
		c-0.06,0.27-0.33,0.44-0.6,0.37c-0.27-0.06-0.43-0.33-0.37-0.6c4.77-19.9,17.21-33.28,30.96-33.28c18.2,0,33,22.88,33,51
		S99.2,244.78,81,244.78z"></path><path class="st1" d="M127.5,261.28l-0.26,0c-0.24,0-44.96,0-45.41,0c-0.28,0-0.5-0.22-0.5-0.5s0.22-0.5,0.5-0.5
		c1.85,0,45.32,0,45.42,0l0.25,0c23.71,0,43-29.83,43-66.5s-19.29-66.5-43-66.5c-0.2,0-0.4,0-0.6,0.01
		c-0.26,0.01-43.11-0.01-44.93-0.01c-0.28,0-0.5-0.22-0.5-0.5c0-0.28,0.22-0.5,0.5-0.5l0,0c0.45,0,44.48,0.01,44.91,0.01
		c0.21,0,0.41-0.01,0.62-0.01c24.26,0,44,30.28,44,67.5S151.76,261.28,127.5,261.28z"></path><path class="st1" d="M113.36,260.19c-0.22,0-0.42-0.14-0.48-0.36c-0.07-0.27,0.08-0.54,0.35-0.62
		c20.44-5.75,35.27-33.26,35.27-65.43c0-32.58-15.69-60.85-36.49-65.74c-0.27-0.06-0.44-0.33-0.37-0.6c0.06-0.27,0.33-0.43,0.6-0.37
		c21.59,5.08,37.26,33.14,37.26,66.71c0,32.6-15.14,60.52-36,66.39C113.45,260.19,113.41,260.19,113.36,260.19z"></path><path class="st1" d="M82.5,261.28c-24.26,0-44-30.28-44-67.5s19.74-67.5,44-67.5s44,30.28,44,67.5S106.76,261.28,82.5,261.28z
		 M82.5,127.28c-23.71,0-43,29.83-43,66.5s19.29,66.5,43,66.5s43-29.83,43-66.5S106.21,127.28,82.5,127.28z"></path><path class="st1" d="M51.07,206.42c-4.76,0-8.62-6.84-8.62-15.25s3.87-15.25,8.62-15.25s8.62,6.84,8.62,15.25
		S55.82,206.42,51.07,206.42z M51.07,176.92c-4.2,0-7.62,6.39-7.62,14.25s3.42,14.25,7.62,14.25s7.62-6.39,7.62-14.25
		S55.27,176.92,51.07,176.92z"></path><path class="st1" d="M430.62,238.38l-0.18,0c-0.17,0-31.72,0-31.72,0v-1c1.29,0,31.65,0,31.72,0l0.17,0
		c16.48,0,29.88-20.77,29.88-46.3c0-25.53-13.41-46.3-29.88-46.3l-0.42,0c-0.18,0-28.19,0-31.39,0c-0.28,0-0.5-0.22-0.5-0.5
		c0-0.28,0.22-0.5,0.5-0.5l0,0c0.31,0,31.03,0.01,31.37,0l0.43,0c17.03,0,30.88,21.22,30.88,47.3
		C461.5,217.16,447.65,238.38,430.62,238.38z"></path><path class="st1" d="M420.74,237.61c-0.22,0-0.42-0.14-0.48-0.36c-0.07-0.27,0.08-0.54,0.35-0.62c14.21-4,24.53-23.15,24.53-45.55
		c0-22.69-10.91-42.37-25.37-45.77c-0.27-0.06-0.44-0.33-0.37-0.6c0.06-0.27,0.33-0.44,0.6-0.37c15.15,3.56,26.14,23.22,26.14,46.74
		c0,22.84-10.62,42.4-25.25,46.51C420.83,237.61,420.79,237.61,420.74,237.61z"></path><path class="st1" d="M312.38,152.78c-0.23,0-0.43-0.15-0.49-0.38c-1.75-7.15-4.9-17.52-11.98-25.06c-0.19-0.2-0.18-0.52,0.02-0.71
		c0.2-0.19,0.52-0.18,0.71,0.02c7.24,7.71,10.44,18.25,12.22,25.51c0.07,0.27-0.1,0.54-0.37,0.6
		C312.46,152.78,312.42,152.78,312.38,152.78z"></path><path class="st1" d="M305.26,159.61c-0.25,0-0.46-0.18-0.49-0.43c-0.04-0.27,0.15-0.53,0.43-0.56l17.18-2.39
		c-3.49-0.69-7.01-1.52-10.32-2.93c-3.37-1.43-7.94-4.11-10.6-8.78c-0.14-0.24-0.05-0.54,0.19-0.68c0.24-0.14,0.54-0.05,0.68,0.19
		c2.52,4.42,6.89,6.98,10.12,8.35c4.17,1.77,8.71,2.61,13.11,3.43c0.24,0.04,0.41,0.26,0.41,0.5s-0.19,0.45-0.43,0.48l-20.2,2.81
		C305.31,159.6,305.28,159.61,305.26,159.61z"></path><path class="st1" d="M306.1,192.2c-8.37,0-16.81-2.8-23.48-7.85c-0.22-0.17-0.26-0.48-0.1-0.7c0.17-0.22,0.48-0.26,0.7-0.1
		c7.13,5.4,16.33,8.16,25.25,7.57c0.81-0.05,1.67-0.13,2.41-0.48c2.08-0.96,2.77-3.74,3.11-5.75c1.46-8.65,1.15-17.73-0.89-26.27
		c-0.06-0.27,0.1-0.54,0.37-0.6c0.27-0.07,0.54,0.1,0.6,0.37c2.07,8.67,2.38,17.89,0.9,26.67c-0.38,2.23-1.16,5.32-3.67,6.49
		c-0.9,0.42-1.9,0.51-2.76,0.57C307.73,192.18,306.92,192.2,306.1,192.2z"></path><path class="st1" d="M287.88,143.77c-0.02,0-0.04,0-0.06,0c-0.27-0.03-0.47-0.28-0.44-0.55c0.13-1.2,1.25-1.97,2.23-2.17
		c0.93-0.19,1.84-0.03,2.72,0.13l0.15,0.03c1.63,0.29,3.29,0.5,4.94,0.61c0.28,0.02,0.48,0.26,0.46,0.53
		c-0.02,0.28-0.24,0.47-0.53,0.46c-1.68-0.12-3.38-0.33-5.05-0.63l-0.15-0.03c-0.83-0.15-1.6-0.29-2.34-0.14
		c-0.66,0.14-1.37,0.63-1.44,1.3C288.35,143.58,288.13,143.77,287.88,143.77z"></path><path class="st1" d="M302.62,141.3c-0.1,0-0.2-0.03-0.29-0.09c-0.22-0.16-0.28-0.47-0.12-0.7c0.89-1.25,1.96-2.34,3.19-3.26
		c0.64-0.48,1.26-0.56,1.7-0.22c0.22,0.17,0.25,0.48,0.08,0.7c-0.17,0.22-0.49,0.25-0.7,0.09c-0.05-0.01-0.22,0.03-0.48,0.23
		c-1.14,0.86-2.14,1.89-2.97,3.05C302.93,141.23,302.78,141.3,302.62,141.3z"></path><path class="st1" d="M299.3,173.04c-0.39,0-0.76-0.09-1.08-0.26c-1.22-0.67-1.35-2.28-1.05-3.56c0.88-3.85,4.36-7.03,8.27-7.56
		c0.28-0.03,0.53,0.15,0.56,0.43c0.04,0.27-0.15,0.53-0.43,0.56c-3.52,0.48-6.64,3.33-7.43,6.79c-0.2,0.88-0.18,2.06,0.56,2.46
		c0.54,0.3,1.25,0.04,1.54-0.08c0.31-0.13,0.59-0.3,0.88-0.47c0.3-0.17,0.59-0.35,0.91-0.49c1.11-0.5,2.36-0.61,3.53-0.3
		c0.27,0.07,0.43,0.34,0.36,0.61c-0.07,0.27-0.34,0.43-0.61,0.36c-0.94-0.25-1.98-0.16-2.86,0.24c-0.28,0.13-0.55,0.29-0.82,0.44
		c-0.31,0.18-0.64,0.38-0.99,0.53C300.17,172.94,299.72,173.04,299.3,173.04z"></path><path class="st1" d="M277.65,165.78c-1.1,0-2.44-0.09-3.48-0.84c-0.61-0.44-1.04-1.03-1.41-1.61c-1.42-2.21-2.37-4.74-2.75-7.33
		c-0.16-1.08-0.27-2.48,0.3-3.74c0.53-1.17,1.88-2.25,3.35-1.96c0.67,0.13,1.22,0.52,1.68,0.87c0.83,0.63,1.61,1.34,2.32,2.1
		c0.01-1.89,0.29-3.67,0.85-5.31l0.16-0.46c0.34-0.96,0.69-1.94,0.43-2.81c-0.14-0.45-0.43-0.86-0.75-1.3
		c-0.99-1.36-1.85-2.8-1.76-4.39c0.08-1.47,1-2.93,2.59-4.11c2.73-2.03,6.22-2.65,8.95-2.96c0.77-0.09,1.55-0.16,2.33-0.23
		c2.25-0.21,4.58-0.42,6.76-1.07c0.77-0.23,1.64-0.55,2.19-1.19c0.44-0.51,0.65-1.4,0.21-1.93c-0.17-0.21-0.14-0.53,0.07-0.7
		c0.21-0.17,0.53-0.14,0.7,0.07c0.81,0.99,0.49,2.39-0.23,3.22c-0.72,0.83-1.75,1.22-2.66,1.49c-2.27,0.67-4.65,0.89-6.95,1.1
		c-0.77,0.07-1.54,0.14-2.31,0.23c-2.61,0.3-5.93,0.88-8.47,2.77c-0.78,0.58-2.1,1.78-2.19,3.36c-0.08,1.35,0.75,2.62,1.54,3.7
		c0.38,0.53,0.75,1.03,0.93,1.64c0.36,1.18-0.07,2.38-0.44,3.43l-0.16,0.44c-0.65,1.92-0.91,4.06-0.76,6.34
		c0.01,0.22-0.11,0.42-0.32,0.5c-0.2,0.08-0.43,0.02-0.57-0.15c-0.9-1.12-1.94-2.14-3.08-3.01c-0.37-0.28-0.81-0.59-1.27-0.68
		c-0.94-0.19-1.87,0.57-2.25,1.39c-0.47,1.02-0.37,2.24-0.23,3.18c0.36,2.45,1.26,4.85,2.6,6.94c0.32,0.49,0.68,1,1.15,1.34
		c0.88,0.63,2.07,0.66,3.41,0.65c0,0,0,0,0.01,0c0.27,0,0.5,0.22,0.5,0.49c0,0.28-0.22,0.5-0.49,0.51
		C278.01,165.78,277.83,165.78,277.65,165.78z"></path><path class="st1" d="M265.8,204.97c-0.08,0-0.16-0.02-0.23-0.06c-0.24-0.13-0.34-0.43-0.21-0.67c2.27-4.36,3.28-9.25,2.93-14.15
		c-0.01-0.15,0.05-0.3,0.16-0.4l0.47-0.44c1.06-1,2.07-1.95,2.96-2.95c0.36-0.4,0.71-0.83,0.83-1.32c0.12-0.48,0.01-1.02-0.11-1.59
		l-0.02-0.1c-1.25-6.11-0.47-12.59,2.19-18.23c0.12-0.25,0.42-0.36,0.67-0.24c0.25,0.12,0.36,0.42,0.24,0.67
		c-2.58,5.45-3.33,11.7-2.12,17.61l0.02,0.1c0.13,0.62,0.27,1.33,0.1,2.03c-0.17,0.71-0.64,1.27-1.06,1.74
		c-0.93,1.04-1.95,2-3.02,3.02l-0.3,0.28c0.32,5-0.74,9.99-3.05,14.45C266.15,204.87,265.98,204.97,265.8,204.97z"></path><path class="st1" d="M300.94,212.12c-0.03,0-0.07,0-0.1-0.01c-0.27-0.05-0.45-0.32-0.39-0.59l3.86-19.57
		c0.05-0.27,0.32-0.45,0.59-0.39c0.27,0.05,0.45,0.32,0.39,0.59l-3.86,19.57C301.38,211.95,301.17,212.12,300.94,212.12z"></path><path class="st1" d="M224.12,246.21c-0.25,0-0.47-0.19-0.5-0.45c-0.78-8.22,0.33-16.66,3.2-24.4c0.38-5.74,2.43-10.84,5.77-14.35
		c3.03-3.18,7.36-5.37,12.21-6.16c4.18-0.68,8.78-0.37,13.67,0.91c2.18,0.57,4.13,1.26,5.94,2.09c3.35,1.53,6.66,3.77,10.14,6.86
		c0.21,0.18,0.23,0.5,0.04,0.71c-0.18,0.21-0.5,0.22-0.71,0.04c-3.4-3.01-6.63-5.2-9.89-6.69c-1.76-0.81-3.65-1.47-5.78-2.03
		c-4.76-1.25-9.22-1.55-13.26-0.89c-4.63,0.76-8.77,2.84-11.65,5.86c-3.2,3.36-5.15,8.26-5.5,13.8c0,0.05-0.01,0.1-0.03,0.14
		c-2.84,7.62-3.94,15.93-3.17,24.03c0.03,0.27-0.18,0.52-0.45,0.54C224.15,246.21,224.14,246.21,224.12,246.21z"></path><path class="st1" d="M244.7,265c-0.07,0-0.14-0.01-0.21-0.04c-0.25-0.12-0.36-0.41-0.25-0.66c2.51-5.5,3.23-12.23,2.2-20.58
		c-0.53-4.34-1.69-10.63-5.59-15.17c-0.18-0.21-0.16-0.53,0.05-0.71c0.21-0.18,0.52-0.16,0.71,0.05c4.07,4.74,5.27,11.23,5.82,15.7
		c1.05,8.54,0.3,15.45-2.29,21.12C245.07,264.89,244.89,265,244.7,265z"></path><path class="st1" d="M233.87,320.17c-3.17,0-6.34-0.77-9.12-2.36c-1.42-0.81-2.84-1.87-4.46-3.32
		c-4.99-4.46-9.03-10.07-11.68-16.21l-34.56-88.95l-3.4-5.73c-0.14-0.24-0.06-0.54,0.18-0.68c0.24-0.14,0.54-0.06,0.68,0.18
		l3.43,5.8l34.59,89.01c2.59,5.99,6.54,11.48,11.42,15.84c1.57,1.41,2.93,2.42,4.29,3.2c6.46,3.69,15.49,2.6,21-2.53
		c3.06-2.86,5-6.65,6.34-9.63c2.38-5.3,4.1-10.89,5.12-16.61c0.14-0.84,2.91-32.61,4.36-49.3c0.02-0.27,0.28-0.48,0.54-0.45
		c0.28,0.02,0.48,0.27,0.46,0.54c-0.71,8.16-4.25,48.88-4.38,49.41c-1.02,5.77-2.77,11.44-5.18,16.81
		c-1.38,3.07-3.37,6.97-6.57,9.95C243.39,318.44,238.61,320.17,233.87,320.17z"></path><path class="st1" d="M239.82,294.19c-0.02,0-0.04,0-0.06,0c-0.27-0.03-0.47-0.28-0.44-0.55c0.8-7.28-0.63-14.86-4.01-21.35
		c-0.07-0.13-21.1-47.2-30.15-67.44c-0.04-0.09-0.05-0.19-0.04-0.28l3.25-20.23c0.01-0.03,0.01-0.07,0.03-0.1
		c0.16-0.42,0.09-0.92-0.18-1.28c-0.27-0.36-0.72-0.58-1.17-0.54c-0.04,0-0.08,0-0.11-0.01c-0.78-0.02-11.94,0.4-19.33,0.7
		c-0.38,0.02-0.77,0.33-0.96,0.76c-0.17,0.41-0.2,0.92-0.07,1.51c0.41,1.95,2.22,3.49,4.21,3.6c0.01,0,0.02,0,0.04,0
		c0.45-0.01,5.33-0.2,8.54-0.34c0.23-0.02,0.47,0.16,0.51,0.41c0.05,0.24-0.1,0.49-0.33,0.57c-3.24,1.09-6.13,3.39-7.92,6.31
		c-1.79,2.92-2.53,6.53-2.04,9.92c0.04,0.27-0.15,0.53-0.42,0.57c-0.27,0.04-0.53-0.15-0.57-0.42c-0.53-3.61,0.27-7.47,2.18-10.59
		c1.44-2.34,3.54-4.32,5.97-5.64c-4.13,0.18-5.5,0.23-6,0.18l0,0.03c-2.42-0.13-4.63-2.02-5.13-4.39c-0.17-0.8-0.13-1.51,0.13-2.12
		c0.34-0.79,1.06-1.32,1.83-1.36c14.96-0.6,18.5-0.73,19.43-0.66l0-0.03c0.79-0.05,1.58,0.31,2.05,0.94
		c0.46,0.62,0.58,1.45,0.33,2.18l-3.21,20.04c1.52,3.39,29.82,66.73,30.07,67.26c3.47,6.65,4.93,14.43,4.11,21.9
		C240.29,294.01,240.07,294.19,239.82,294.19z"></path><path class="st1" d="M202.53,182.32c-0.21,0-0.4-0.13-0.47-0.34c-0.76-2.25-1.72-4.45-2.85-6.53c-0.27-0.5-0.55-0.98-0.95-1.28
		c-0.52-0.39-1.3-0.5-2.04-0.28c-0.66,0.19-1.29,0.61-1.95,1.27c-0.19,0.2-0.51,0.2-0.71,0c-0.2-0.19-0.2-0.51,0-0.71
		c0.78-0.79,1.56-1.29,2.38-1.53c1.06-0.31,2.15-0.15,2.93,0.44c0.56,0.42,0.91,1.02,1.22,1.6c1.17,2.13,2.15,4.39,2.92,6.69
		c0.09,0.26-0.05,0.55-0.31,0.63C202.63,182.31,202.58,182.32,202.53,182.32z"></path><path class="st1" d="M196.28,182.49c-0.21,0-0.4-0.13-0.47-0.34c-0.62-1.85-1.33-3.69-2.11-5.46c-0.26-0.6-0.53-1.18-0.9-1.66
		c-0.78-1.01-2.06-1.61-3.33-1.56c-1.28,0.05-2.5,0.75-3.19,1.82c-0.15,0.23-0.46,0.3-0.69,0.15c-0.23-0.15-0.3-0.46-0.15-0.69
		c0.87-1.34,2.4-2.22,3.99-2.28c1.6-0.06,3.19,0.68,4.16,1.95c0.44,0.57,0.73,1.21,1.02,1.87c0.79,1.81,1.52,3.67,2.14,5.55
		c0.09,0.26-0.05,0.54-0.32,0.63C196.39,182.48,196.33,182.49,196.28,182.49z"></path><path class="st1" d="M188.81,182.73c-0.22,0-0.42-0.14-0.48-0.37c-0.57-2.04-1.17-4.16-2.37-5.92c-1.28-1.87-3.17-2.99-5-3.01
		c-1.35,0.01-2.71,0.68-3.54,1.74c-0.17,0.22-0.48,0.26-0.7,0.09c-0.22-0.17-0.26-0.48-0.09-0.7c1.03-1.32,2.65-2.11,4.32-2.12
		c2.15,0.03,4.35,1.28,5.83,3.45c1.29,1.89,1.91,4.09,2.5,6.21c0.07,0.27-0.08,0.54-0.35,0.62
		C188.9,182.73,188.85,182.73,188.81,182.73z"></path><path class="st1" d="M177.69,187.32c-0.6,0-1.18-0.12-1.69-0.24c-1.71-0.39-3.39-0.95-5-1.67c-0.25-0.11-0.36-0.41-0.25-0.66
		c0.11-0.25,0.41-0.36,0.66-0.25c1.54,0.69,3.16,1.23,4.81,1.61c0.6,0.14,1.29,0.27,1.94,0.18c0.62-0.09,1.13-0.42,1.35-0.86
		c0.19-0.38,0.18-0.87,0.14-1.35c-0.19-2.4-0.98-4.75-2.27-6.78c-0.97-1.52-2.07-2.55-3.26-3.06c-1.41-0.6-3.05-0.4-3.99,0.49
		c-0.2,0.19-0.52,0.18-0.71-0.02c-0.19-0.2-0.18-0.52,0.02-0.71c1.24-1.17,3.28-1.45,5.07-0.68c1.38,0.59,2.63,1.75,3.71,3.44
		c1.38,2.17,2.22,4.67,2.43,7.24c0.05,0.62,0.05,1.27-0.24,1.87c-0.36,0.74-1.14,1.26-2.09,1.41
		C178.1,187.3,177.89,187.32,177.69,187.32z"></path><path class="st1" d="M185.21,187.87c-1.96,0-3.93-0.92-5.12-2.48c-0.17-0.22-0.13-0.53,0.09-0.7c0.22-0.17,0.53-0.12,0.7,0.09
		c1.24,1.63,3.5,2.43,5.49,1.95c0.27-0.06,0.54,0.1,0.6,0.37s-0.1,0.54-0.37,0.6C186.15,187.82,185.68,187.87,185.21,187.87z"></path><path class="st1" d="M171.11,203.5c-0.27,0-0.49-0.22-0.5-0.49c-0.01-0.28,0.21-0.5,0.49-0.51l17.23-0.33
		c0.29-0.02,0.5,0.21,0.51,0.49s-0.21,0.5-0.49,0.51L171.11,203.5C171.12,203.5,171.12,203.5,171.11,203.5z"></path><path class="st1" d="M183.82,220.04c-1.76,0-3.53-0.15-5.28-0.44c-0.27-0.05-0.46-0.3-0.41-0.58c0.05-0.27,0.3-0.46,0.58-0.41
		c5.16,0.86,10.5,0.4,15.43-1.33c4.94-1.73,9.39-4.71,12.88-8.6c0.19-0.21,0.5-0.22,0.71-0.04c0.21,0.18,0.22,0.5,0.04,0.71
		c-3.6,4.02-8.2,7.09-13.29,8.88C191.05,219.43,187.44,220.04,183.82,220.04z"></path><path class="st1" d="M190.61,237.83c-1.7,0-3.4-0.15-5.06-0.45c-0.27-0.05-0.45-0.31-0.4-0.58c0.05-0.27,0.31-0.45,0.58-0.4
		c5.27,0.95,10.9,0.32,15.83-1.76c4.94-2.09,9.31-5.68,12.3-10.12c0.15-0.23,0.46-0.29,0.69-0.13c0.23,0.15,0.29,0.47,0.13,0.69
		c-3.1,4.6-7.63,8.33-12.74,10.49C198.39,237.06,194.49,237.83,190.61,237.83z"></path><path class="st1" d="M263.54,181.44c0,0-0.01,0-0.01,0l-61.29-1.35c-0.28-0.01-0.49-0.23-0.49-0.51c0.01-0.28,0.22-0.5,0.51-0.49
		l61.28,1.35c0.28,0.01,0.5,0.23,0.49,0.51C264.03,181.22,263.81,181.44,263.54,181.44z"></path><path class="st1" d="M206.64,202.77c-0.27,0-0.49-0.21-0.5-0.48c-0.01-0.28,0.21-0.51,0.48-0.52l60.53-1.84
		c0.32,0.01,0.51,0.21,0.52,0.48c0.01,0.28-0.21,0.51-0.48,0.52l-60.53,1.84C206.65,202.77,206.64,202.77,206.64,202.77z"></path><path class="st1" d="M342.48,239.87c-0.25,0-0.47-0.19-0.5-0.44c-0.59-5.14-2.38-10.15-5.19-14.49c-0.62-0.95-1.47-2.06-2.59-2.18
		c-0.19-0.02-0.35-0.15-0.42-0.32c-2.97-8.08-6.43-13.75-10.89-17.84c-5.51-5.06-12.72-7.31-18.81-5.87
		c-0.28,0.07-0.54-0.1-0.6-0.37c-0.06-0.27,0.1-0.54,0.37-0.6c6.41-1.51,13.97,0.82,19.72,6.1c4.53,4.16,8.04,9.87,11.05,17.96
		c1.38,0.3,2.33,1.52,3.01,2.58c2.89,4.47,4.74,9.63,5.35,14.92c0.03,0.27-0.17,0.52-0.44,0.55
		C342.51,239.87,342.5,239.87,342.48,239.87z"></path><path class="st1" d="M340.85,251.36c-0.03,0-0.07,0-0.1-0.01c-0.27-0.05-0.45-0.32-0.39-0.59l9.27-46.12l-4.58-5.24
		c-0.18-0.21-0.16-0.52,0.05-0.71c0.21-0.18,0.52-0.16,0.71,0.05l4.74,5.43c0.1,0.12,0.14,0.27,0.11,0.43l-9.32,46.36
		C341.29,251.19,341.08,251.36,340.85,251.36z"></path><path class="st1" d="M316.07,199.66c-0.27,0-0.49-0.22-0.5-0.49c-0.01-0.28,0.21-0.5,0.49-0.51c0.32-0.01,31.29-0.67,32.98-0.71
		c1.07-0.4,2.02-1.35,2.61-2.63c0.59-1.28,0.78-2.73,0.88-3.98c0.12-1.44,0.18-3.12-0.33-4.67c-0.5-1.54-1.54-2.73-2.78-3.19
		l-34.03-0.84c-0.28-0.01-0.49-0.24-0.49-0.51c0.01-0.27,0.23-0.49,0.5-0.49c0,0,0.01,0,0.01,0l34.11,0.84
		c0.05,0,0.1,0.01,0.15,0.03c1.57,0.55,2.87,1.99,3.47,3.85c0.56,1.72,0.5,3.53,0.37,5.07c-0.11,1.34-0.31,2.9-0.97,4.32
		c-0.71,1.54-1.9,2.7-3.26,3.18c-0.11,0.04-0.12,0.04-33.22,0.75C316.08,199.66,316.08,199.66,316.07,199.66z"></path><path class="st1" d="M360.14,204.81c-0.06,0-0.11-0.01-0.17-0.03c-0.26-0.09-0.39-0.38-0.3-0.64c1.18-3.25,1.5-6.77,0.93-10.19
		c-0.13-0.8-0.35-1.69-0.93-2.23c-0.15-0.14-0.2-0.36-0.13-0.55c0.07-0.19,0.26-0.32,0.46-0.32c1.94-0.01,3.85-0.56,5.5-1.58
		c0.83-0.52,1.29-1.02,1.45-1.57c0.09-0.32,0.02-0.72-0.17-1c-0.09-0.13-0.25-0.3-0.49-0.32l0-0.01c-0.68,0.06-2.87,0.08-10.84,0.1
		c-0.88-0.05-1.78,0.65-1.93,1.52c-0.05,0.27-0.3,0.45-0.58,0.41c-0.27-0.05-0.46-0.31-0.41-0.58c0.24-1.37,1.57-2.4,2.94-2.35
		c4.06-0.01,10.25-0.04,10.77-0.08c0.04-0.01,0.09-0.01,0.13-0.01c0.49,0.04,0.92,0.31,1.23,0.75c0.36,0.53,0.48,1.23,0.31,1.84
		c-0.3,1.06-1.22,1.74-1.89,2.15c-1.53,0.95-3.26,1.52-5.05,1.68c0.34,0.62,0.5,1.33,0.61,1.98c0.6,3.58,0.26,7.27-0.97,10.69
		C360.54,204.68,360.35,204.81,360.14,204.81z"></path><path class="st1" d="M356.56,186.26c-0.21,0-0.4-0.13-0.47-0.34c-0.62-1.82-1.51-3.54-2.63-5.11c-0.26-0.36-0.57-0.77-0.95-1.02
		c-0.48-0.31-1.16-0.41-1.84-0.28c-0.58,0.12-1.19,0.39-1.91,0.86c-1.03,0.66-1.95,1.48-2.74,2.42c-0.18,0.21-0.49,0.24-0.7,0.06
		c-0.21-0.18-0.24-0.49-0.06-0.7c0.85-1.01,1.85-1.89,2.96-2.61c0.84-0.54,1.55-0.86,2.26-1c0.94-0.19,1.88-0.03,2.58,0.42
		c0.53,0.35,0.91,0.84,1.22,1.28c1.17,1.64,2.1,3.45,2.76,5.36c0.09,0.26-0.05,0.55-0.31,0.64
		C356.67,186.25,356.61,186.26,356.56,186.26z"></path><path class="st1" d="M361.58,186.24c-0.21,0-0.41-0.13-0.48-0.35c-0.65-2-1.59-3.89-2.79-5.62c-0.29-0.42-0.64-0.88-1.08-1.06
		c-0.4-0.16-0.93-0.11-1.44,0.14c-0.52,0.26-0.99,0.69-1.4,1.07c-0.2,0.19-0.52,0.17-0.71-0.03s-0.17-0.52,0.03-0.71
		c0.46-0.43,0.99-0.91,1.64-1.23c0.77-0.38,1.59-0.44,2.26-0.16c0.7,0.29,1.16,0.88,1.53,1.41c1.25,1.81,2.24,3.79,2.92,5.88
		c0.08,0.26-0.06,0.54-0.32,0.63C361.68,186.23,361.63,186.24,361.58,186.24z"></path><path class="st1" d="M365.99,186.22c-0.22,0-0.42-0.15-0.48-0.37c-0.45-1.64-1.12-3.21-1.99-4.67c-0.26-0.43-0.57-0.91-1-1.15
		c-0.37-0.21-0.88-0.27-1.41-0.15c-0.55,0.12-1.09,0.39-1.54,0.64c-0.24,0.13-0.54,0.04-0.68-0.2s-0.04-0.55,0.2-0.68
		c0.52-0.28,1.13-0.6,1.81-0.74c0.78-0.16,1.53-0.07,2.12,0.26c0.61,0.35,1.01,0.93,1.36,1.51c0.92,1.54,1.62,3.19,2.1,4.92
		c0.07,0.27-0.08,0.54-0.35,0.61C366.08,186.22,366.04,186.22,365.99,186.22z"></path><path class="st1" d="M361.89,198.61c-0.27,0-0.5-0.22-0.5-0.49c0-0.28,0.21-0.5,0.49-0.51l33.74-0.6c1.28-1.08,2.19-2.74,2.51-4.58
		c0.29-1.7,0.11-3.61-0.52-5.54c-0.42-1.27-0.94-2.07-1.63-2.48c-1.59-0.11-22.44-0.57-30.51-0.74c-0.28-0.01-0.5-0.23-0.49-0.51
		c0.01-0.28,0.24-0.47,0.51-0.49c30.69,0.66,30.78,0.73,30.96,0.86c1.2,0.65,1.78,2.05,2.11,3.05c0.68,2.08,0.88,4.16,0.55,6.02
		c-0.37,2.14-1.47,4.07-3,5.3c-0.09,0.07-0.19,0.11-0.3,0.11L361.89,198.61C361.89,198.61,361.89,198.61,361.89,198.61z"></path></g></svg>