<svg xmlns="http://www.w3.org/2000/svg" fill="none" viewBox="0 0 24 24" id="Fitness-Muscular--Streamline-Nova.svg" height="24" width="24"><desc>Fitness Muscular Streamline Icon: https://streamlinehq.com</desc><path stroke="#222831" stroke-linejoin="round" stroke-miterlimit="10" stroke-width="2" d="M22.7804 6.6496C21.8008 5.474 20.3313 4.7883 18.666 4.7883C15.9231 4.7883 13.572 6.9435 13.2781 9.5884V9.665"></path><path stroke="#222831" stroke-linejoin="round" stroke-miterlimit="10" stroke-width="2" d="M9.9474 13.115L6.2249 7.2373L7.2045 6.5516C8.3801 5.67 8.576 4.0046 7.6943 2.8291C6.9106 1.7515 5.3432 1.4576 4.1677 2.1434C1.5227 3.7108 0.4452 7.0415 1.8166 9.8824L6.8127 19.8744C8.2821 19.8744 17.8823 19.4826 22.7804 13.311"></path><path stroke="#222831" stroke-linejoin="round" stroke-miterlimit="10" stroke-width="2" d="M15.8251 10.9599C14.9435 9.2946 11.025 8.9028 9.1637 11.7436L9.1216 11.8155"></path><path stroke="#222831" stroke-linejoin="round" stroke-miterlimit="10" stroke-width="2" d="M6.2211 7.2389L4.6537 8.2185"></path><path stroke="#222831" stroke-linejoin="round" stroke-miterlimit="10" stroke-width="2" d="M22.7804 22.2255L20.6498 15.4463"></path></svg>